# xmcd
#
# Track frame offsets:
#	150
#	11434
#	20994
#	31845
#	43615
#	53220
#	65067
#	75467
#	84677
#	95702
#	104540
#	116515
#	127775
#	137435
#	147700
#	160767
#	171135
#	181170
#	194492
#	205332
#	217175
#	228350
#	244420
#	258550
#	268215
#
# Disc length: 3753 seconds
#
# Revision: 0
# Processed by: cddbd v1.4PL0 Copyright (c) Steve Scherf et al.
# Submitted via: dBpowerAMP V4.0
#
DISCID=730ea719
DTITLE=Freddy Hart - Hart To Hearts
DYEAR=1900
DGENRE=Country
TTITLE0=Easy Loving
TTITLE1=The Want To's
TTITLE2=Hang In There Girl
TTITLE3=Super Kind Of Woman
TTITLE4=My Hang Up Is You
TTITLE5=Trip To Heaven
TTITLE6=If Fingerprints Showed Up On Skin
TTITLE7=If You Can't Feel It, It Ain't There
TTITLE8=Got The All Overs For You
TTITLE9=Bless Your Heart
TTITLE10=The Whole World's Holding Hands
TTITLE11=Loving Her Through Her
TTITLE12=In The Arms Of Love
TTITLE13=Heart
TTITLE14=The Keys In The Mailbox
TTITLE15=Would You Settle For Roses
TTITLE16=Conscience Makes Cowards Of Us All
TTITLE17=Sure Thing
TTITLE18=The Greatest Gift Of All
TTITLE19=I'd LikeTo Sleep Till I Get Over You
TTITLE20=Every Time He Touches You
TTITLE21=Roses Are Red
TTITLE22=The First Time
TTITLE23=Love Makes The Difference
TTITLE24=My Woman's Man
EXTD=Freddy Hart \nHart To Hearts \nMr. Easy Loving
EXTT0=
EXTT1=
EXTT2=
EXTT3=
EXTT4=
EXTT5=
EXTT6=
EXTT7=
EXTT8=
EXTT9=
EXTT10=
EXTT11=
EXTT12=
EXTT13=
EXTT14=
EXTT15=
EXTT16=
EXTT17=
EXTT18=
EXTT19=
EXTT20=
EXTT21=
EXTT22=
EXTT23=
EXTT24=
PLAYORDER=
